<svg width="24" height="24" viewBox="0 0 24 24" fill="none" xmlns="http://www.w3.org/2000/svg">
  <!-- Tree trunk with classical curves - filled dark green -->
  <path d="M11.5 16C11.5 16 11 18 11 20V22H13V20C13 18 12.5 16 12.5 16" fill="#1B5E20" stroke="#1B5E20" stroke-width="2" stroke-linecap="round" stroke-linejoin="round"/>
  
  <!-- Main tree canopy with flowing curves - filled dark green -->
  <path d="M12 2C8 6 6 10 6 14C6 16 8 16 10 14C10 12 11 10 12 8C13 10 14 12 14 14C16 16 18 16 18 14C18 10 16 6 12 2Z" fill="#1B5E20" stroke="#1B5E20" stroke-width="2" stroke-linecap="round" stroke-linejoin="round"/>
  
  <!-- Subtle root details - filled dark green -->
  <path d="M10 22C9 21 8 20 7 19" fill="#1B5E20" stroke="#1B5E20" stroke-width="1.5" stroke-linecap="round"/>
  <path d="M14 22C15 21 16 20 17 19" fill="#1B5E20" stroke="#1B5E20" stroke-width="1.5" stroke-linecap="round"/>
</svg>
